<svg width="38" height="26" viewBox="0 0 38 26" fill="none" xmlns="http://www.w3.org/2000/svg"><path d="M7.64 7.606a5.388 5.388 0 015.367-5.368c2.163 0 3.996 1.846 4.854 3.677l1.014 2.162 1.014-2.162c.83-1.771 2.7-3.677 4.854-3.677a5.388 5.388 0 015.369 5.368c0 2.513-1.116 4.34-2.795 6.11h2.93a9.861 9.861 0 002.108-6.109A7.636 7.636 0 0024.747 0a7.533 7.533 0 00-5.87 3.284A7.53 7.53 0 0013.004 0 7.634 7.634 0 005.4 7.608a9.95 9.95 0 001.618 5.594H9.82a8.258 8.258 0 01-2.184-5.596h.003zm16.791 8.81a38.448 38.448 0 00-5.572 5.7 39.92 39.92 0 00-5.486-5.508c-.942-.826-1.822-1.6-2.6-2.383H7.756a32.674 32.674 0 004.15 4.078 35.16 35.16 0 016.052 6.336l.942 1.357.904-1.364a33.11 33.11 0 016.102-6.53 40.394 40.394 0 003.511-3.367h-3.134c-.61.569-1.229 1.129-1.856 1.679" fill="#2990E6"></path><path d="M36.525 13.716H21.2l-1.306-4.56a.512.512 0 00-.992.034l-1.377 6.318-.703-1.966a.516.516 0 00-.485-.34H1.475a.514.514 0 100 1.028h14.501l1.186 3.309a.513.513 0 00.483.34h.033a.514.514 0 00.47-.403L19.47 11.4l.85 2.97a.515.515 0 00.495.372h15.71a.511.511 0 00.492-.713.512.512 0 00-.492-.312z" fill="#2990E6"></path></svg>