<svg width="26" height="26" viewBox="0 0 26 26" fill="none" xmlns="http://www.w3.org/2000/svg"><path d="M12.764 25.68c.078 0 .157.011.236.011.078 0 .157-.01.236-.011-.079 0-.158.011-.236.011-.08 0-.158-.01-.236-.011zM9.498 12.45l-1.397-1.665-.025-.025a.394.394 0 00-.272-.115h-.31a.27.27 0 00-.263.21.264.264 0 00.01.15l.566 1.593a.44.44 0 01.012.072v.175a.89.89 0 00-.247.163l-.006.005a.375.375 0 00-.112.263c.002.1.042.194.113.264l.005.005c.075.07.16.125.254.167h-.009v.18a.382.382 0 01-.012.067l-.561 1.596a.274.274 0 00.057.285.268.268 0 00.193.078h.315a.394.394 0 00.267-.116l.019-.02 1.391-1.667.226.03c.835.102 1.842.17 2.923.198v1.129a.6.6 0 01-.01.083l-.871 3.075a.273.273 0 00.266.349h.666a.349.349 0 00.236-.104.395.395 0 00.05-.079l.659-1.221h.472a.292.292 0 00.29-.29v-.336a.294.294 0 00-.258-.29l.091-.172h.503a.294.294 0 00.18-.069l-4.101-4.101c-.363.026-.724.06-1.085.102-.08.01-.153.02-.225.031zm8.653 1.896h.037a3.148 3.148 0 001.684-.666l.012-.01a.618.618 0 00.183-.304.294.294 0 00.009-.08.335.335 0 00-.007-.078.62.62 0 00-.182-.31 3.152 3.152 0 00-1.7-.676h.005a14.713 14.713 0 00-2.266-.04h-.02l-.526.013-.655-1.208a.292.292 0 00.292-.29l.005-.342a.296.296 0 00-.085-.208.289.289 0 00-.205-.079h-.5l-.096-.17a.294.294 0 00.258-.288v-.33a.296.296 0 00-.085-.21.286.286 0 00-.206-.084h-.459L12.98 7.76a.34.34 0 00-.053-.073.353.353 0 00-.247-.103h-.658a.272.272 0 00-.267.342l.875 3.085a.62.62 0 01.013.086v.435l2.84 2.84.415.01c.751.047 1.504.035 2.253-.036" fill="#2990E6"></path><path d="M13 0a12.996 12.996 0 00-.244 25.989l.09.004c.051 0 .102.007.154.007.05.001.101-.001.152-.007l.09-.004A12.996 12.996 0 0013 0zm0 24.144A11.125 11.125 0 014.413 5.926l6.395 6.394 4.1 4.102 5.168 5.168A11.108 11.108 0 0113 24.147v-.003zm8.404-3.85l-5.92-5.92-2.84-2.84L5.71 4.6a11.124 11.124 0 0115.694 15.694" fill="#2990E6"></path></svg>