<svg width="30" height="26" viewBox="0 0 30 26" fill="none" xmlns="http://www.w3.org/2000/svg"><path d="M23.4 5.225A7.617 7.617 0 0016.135 0h-.014a7.648 7.648 0 00-7.048 4.623 5.982 5.982 0 00-5.262 4.83 4.212 4.212 0 00-2.88 2.915H.78v1.214a4.495 4.495 0 004.307 4.474l.174.006h17.685l.536-.005.336-.039v-.04a6.374 6.374 0 005.404-6.35 6.446 6.446 0 00-5.821-6.4v-.003zm-.471 11.081l-17.67.004a2.74 2.74 0 01-2.726-2.726v-.174l.006-.1a2.443 2.443 0 012.162-2.248l.726-.083.048-.727A4.213 4.213 0 019.667 6.35h.641l.204-.59a5.939 5.939 0 015.612-4.004h.011a5.902 5.902 0 015.754 4.529l.164.663h.742a4.68 4.68 0 01.138 9.358h-.004zM8.555 18.889a.533.533 0 00-.755.023l-1.876 1.994a.536.536 0 00.779.737l1.876-1.995a.536.536 0 00-.023-.756v-.003zm-3.75 4.215L2.929 25.1a.536.536 0 00.61.858.533.533 0 00.17-.126l1.876-1.994a.535.535 0 00-.78-.733zm5.99-4.192l-1.874 1.995a.535.535 0 10.78.732l1.874-1.994a.535.535 0 00-.78-.732zM7.8 23.104l-1.876 1.994a.534.534 0 10.78.733l1.875-1.995a.535.535 0 00-.78-.732zm5.987-4.192l-1.875 1.994a.536.536 0 00.78.733l1.876-1.994a.536.536 0 00-.78-.733zm-2.991 4.192L8.92 25.098a.534.534 0 10.78.733l1.874-1.995a.535.535 0 00-.78-.731zm6.743-4.215a.533.533 0 00-.755.023l-1.876 1.994a.537.537 0 00.78.737l1.875-1.995a.533.533 0 00-.023-.756l-.001-.003zm-3.752 4.215L11.912 25.1a.535.535 0 10.78.732l1.876-1.995a.534.534 0 00-.407-.901.533.533 0 00-.373.169zm5.99-4.192L17.9 20.907a.536.536 0 10.78.732l1.875-1.994a.534.534 0 00-.78-.732zm-2.997 4.192l-1.876 1.994a.534.534 0 10.78.733l1.876-1.995a.535.535 0 00-.78-.732" fill="#2990E6"></path></svg>